<svg width="569" height="853" viewBox="0 0 569 853" fill="none" xmlns="http://www.w3.org/2000/svg">
<g clip-path="url(#clip0_33_30)">
<path fill-rule="evenodd" clip-rule="evenodd" d="M284.257 0C338.957 233.659 405.387 245.737 518.882 421.294C548.384 466.901 569 515.424 569 571.096C569 648.427 541.095 714.721 485.215 769.977C429.127 825.233 362.28 853 284.396 853C206.72 853 140.011 825.233 83.9235 769.977C27.9745 714.721 0 648.427 0 571.096C0 515.146 20.9635 466.276 50.7428 420.391C164.446 245.251 230.599 232.895 284.257 0Z" fill="#5F86A6"/>
<path fill-rule="evenodd" clip-rule="evenodd" d="M313.092 505.281C300.445 514.682 283.708 532.936 283.708 532.936C283.708 532.936 263.285 515.218 249.138 505.281C234.266 494.833 209.383 481.082 209.383 481.082C209.383 481.082 224.489 447.609 238.767 429.228C256.065 406.959 292.35 380.83 292.35 380.83C292.35 380.83 317.334 408.488 328.648 429.228C339.697 449.479 349.39 484.539 349.39 484.539C349.39 484.539 326.195 495.541 313.092 505.281ZM231.853 629.732C240.186 601.025 264.695 560.593 264.695 560.593C264.695 560.593 236.445 531.143 214.569 517.381C181.322 496.464 119.502 484.539 119.502 484.539C119.502 484.539 91.8463 577.877 128.145 636.646C164.443 695.414 226.668 716.156 226.668 716.156C226.668 716.156 222.398 662.306 231.853 629.732ZM257.781 719.613C257.781 719.613 252.595 612.447 307.907 553.679C363.218 494.91 446.185 484.539 446.185 484.539C446.185 484.539 484.212 564.05 434.086 650.474C383.96 736.898 257.781 719.613 257.781 719.613Z" fill="#B4DDFF"/>
</g>
<defs>
<clipPath id="clip0_33_30">
<rect width="569" height="853" fill="white"/>
</clipPath>
</defs>
</svg>
