<svg width="220" height="220" viewBox="0 0 220 220" fill="none" xmlns="http://www.w3.org/2000/svg">
<path fill-rule="evenodd" clip-rule="evenodd" d="M25.9244 7.01516C28.3302 4.61277 31.2191 2.74914 34.3996 1.54777C37.5801 0.346406 40.9796 -0.165269 44.3727 0.0466588C47.7659 0.258586 51.0753 1.18928 54.0816 2.77705C57.088 4.36483 59.7225 6.57344 61.8108 9.25652L86.4913 40.9655C91.0149 46.782 92.6098 54.3586 90.8224 61.5089L83.3014 91.6228C82.9125 93.1825 82.9335 94.8163 83.3623 96.3655C83.7912 97.9147 84.6133 99.3267 85.7488 100.464L119.531 134.25C120.67 135.388 122.085 136.211 123.636 136.64C125.188 137.069 126.825 137.089 128.386 136.697L158.484 129.176C162.012 128.294 165.695 128.225 169.254 128.975C172.812 129.726 176.154 131.275 179.026 133.507L210.732 158.176C222.131 167.045 223.176 183.89 212.974 194.079L198.756 208.297C188.582 218.472 173.375 222.941 159.199 217.95C122.916 205.183 89.9737 184.41 62.8145 157.172C35.5806 130.015 14.8094 97.0744 2.04141 60.7939C-2.93593 46.6307 1.53268 31.4088 11.7074 21.2333L25.9244 7.01516Z" fill="#B4DDFF"/>
</svg>
