<svg width="288" height="288" viewBox="0 0 288 288" fill="none" xmlns="http://www.w3.org/2000/svg">
<path d="M279.754 1.58252H220.79C215.141 1.58252 212.312 8.41082 216.307 12.4066L234.627 30.7261L127.713 137.64L90.2747 100.201L80.2409 90.1671C76.8457 86.7719 71.3419 86.7719 67.9468 90.1671L4.12744 153.983C0.732259 157.378 0.732259 162.882 4.12744 166.277L14.1612 176.311C17.5564 179.706 23.0602 179.706 26.4554 176.311L74.0922 128.674L121.492 176.074C124.887 179.469 130.391 179.469 133.786 176.074L138.888 170.972C139.151 170.763 139.426 170.577 139.669 170.333L256.952 53.0508L275.271 71.3703C279.267 75.3661 286.095 72.5368 286.095 66.8876V7.92399C286.095 4.42132 283.256 1.58252 279.754 1.58252Z" fill="#B4DDFF"/>
<path d="M209.043 121.078V277.401C209.043 282.203 212.934 286.095 217.736 286.095H245.498C250.3 286.095 254.192 282.203 254.192 277.401V75.9287L209.043 121.078Z" fill="#B4DDFF"/>
<path d="M150.525 179.599V277.401C150.525 282.203 154.416 286.095 159.218 286.095H186.98C191.782 286.095 195.674 282.203 195.674 277.401V134.45L150.525 179.599Z" fill="#B4DDFF"/>
<path d="M127.641 192.847C121.517 192.847 115.764 190.464 111.433 186.133L92.0039 166.707V277.401C92.0039 282.203 95.8954 286.095 100.697 286.095H128.459C133.261 286.095 137.153 282.203 137.153 277.401V190.764C134.203 192.114 130.982 192.847 127.641 192.847Z" fill="#B4DDFF"/>
<path d="M74.0921 148.792L36.5175 186.367C35.5754 187.309 34.5543 188.144 33.4858 188.896V277.402C33.4858 282.204 37.3773 286.095 42.1793 286.095H69.9414C74.7433 286.095 78.6348 282.204 78.6348 277.402V153.335L74.0921 148.792Z" fill="#B4DDFF"/>
</svg>
