<svg width="569" height="853" viewBox="0 0 569 853" fill="none" xmlns="http://www.w3.org/2000/svg">
<g clip-path="url(#clip0_31_5)">
<path fill-rule="evenodd" clip-rule="evenodd" d="M284.257 0C338.957 233.659 405.387 245.737 518.882 421.294C548.384 466.901 569 515.424 569 571.096C569 648.427 541.095 714.721 485.215 769.977C429.127 825.233 362.28 853 284.396 853C206.72 853 140.011 825.233 83.9235 769.977C27.9745 714.721 0 648.427 0 571.096C0 515.146 20.9635 466.276 50.7428 420.391C164.446 245.251 230.599 232.895 284.257 0Z" fill="#5F86A6"/>
<path d="M285 735C326.374 735 366.053 718.564 395.309 689.309C424.564 660.053 441 620.374 441 579C441 535.97 411.828 503.496 377.768 465.588C343.604 427.576 304.5 384.078 285 319C285 319 129 466.836 129 579C129 620.374 145.436 660.053 174.691 689.309C203.947 718.564 243.626 735 285 735ZM249.796 439.796L268.204 458.204C260.664 465.744 238.876 492.29 218.622 532.824L195.378 521.176C216.698 478.51 240.02 449.598 249.796 439.796Z" fill="#B4DDFF"/>
</g>
<defs>
<clipPath id="clip0_31_5">
<rect width="569" height="853" fill="white"/>
</clipPath>
</defs>
</svg>
