<svg width="569" height="853" viewBox="0 0 569 853" fill="none" xmlns="http://www.w3.org/2000/svg">
<g clip-path="url(#clip0_34_80)">
<path fill-rule="evenodd" clip-rule="evenodd" d="M284.257 0C338.957 233.659 405.387 245.737 518.882 421.294C548.384 466.901 569 515.424 569 571.096C569 648.427 541.095 714.721 485.215 769.977C429.127 825.233 362.28 853 284.396 853C206.72 853 140.011 825.233 83.9235 769.977C27.9745 714.721 0 648.427 0 571.096C0 515.146 20.9635 466.276 50.7428 420.391C164.446 245.251 230.599 232.895 284.257 0Z" fill="#5F86A6"/>
<path d="M284.5 705C284.5 705 409 587.016 409 497.5C409 464.481 395.883 432.813 372.535 409.465C349.187 386.117 317.519 373 284.5 373C251.481 373 219.813 386.117 196.465 409.465C173.117 432.813 160 464.481 160 497.5C160 587.016 284.5 705 284.5 705ZM284.5 559.75C267.99 559.75 252.157 553.192 240.483 541.517C228.808 529.843 222.25 514.01 222.25 497.5C222.25 480.99 228.808 465.157 240.483 453.483C252.157 441.808 267.99 435.25 284.5 435.25C301.01 435.25 316.843 441.808 328.517 453.483C340.192 465.157 346.75 480.99 346.75 497.5C346.75 514.01 340.192 529.843 328.517 541.517C316.843 553.192 301.01 559.75 284.5 559.75Z" fill="#B4DDFF"/>
</g>
<defs>
<clipPath id="clip0_34_80">
<rect width="569" height="853" fill="white"/>
</clipPath>
</defs>
</svg>
