<svg width="569" height="853" viewBox="0 0 569 853" fill="none" xmlns="http://www.w3.org/2000/svg">
<g clip-path="url(#clip0_34_86)">
<path fill-rule="evenodd" clip-rule="evenodd" d="M284.257 0C338.957 233.659 405.387 245.737 518.882 421.294C548.384 466.901 569 515.424 569 571.096C569 648.427 541.095 714.721 485.215 769.977C429.127 825.233 362.28 853 284.396 853C206.72 853 140.011 825.233 83.9235 769.977C27.9745 714.721 0 648.427 0 571.096C0 515.146 20.9635 466.276 50.7428 420.391C164.446 245.251 230.599 232.895 284.257 0Z" fill="#5F86A6"/>
<path d="M153.642 621V475.545H211.028C222.061 475.545 231.459 477.652 239.224 481.866C246.99 486.033 252.908 491.833 256.98 499.267C261.099 506.653 263.159 515.176 263.159 524.835C263.159 534.494 261.076 543.017 256.909 550.403C252.742 557.79 246.705 563.543 238.798 567.662C230.938 571.781 221.421 573.841 210.247 573.841H173.67V549.196H205.276C211.194 549.196 216.071 548.178 219.906 546.142C223.789 544.059 226.677 541.194 228.571 537.548C230.512 533.855 231.483 529.617 231.483 524.835C231.483 520.006 230.512 515.792 228.571 512.193C226.677 508.547 223.789 505.73 219.906 503.741C216.024 501.705 211.099 500.688 205.134 500.688H184.395V621H153.642ZM283.134 621V475.545H313.887V535.56H376.316V475.545H406.998V621H376.316V560.915H313.887V621H283.134Z" fill="#B4DDFF"/>
</g>
<defs>
<clipPath id="clip0_34_86">
<rect width="569" height="853" fill="white"/>
</clipPath>
</defs>
</svg>
