<svg width="569" height="853" viewBox="0 0 569 853" fill="none" xmlns="http://www.w3.org/2000/svg">
<g clip-path="url(#clip0_32_13)">
<path fill-rule="evenodd" clip-rule="evenodd" d="M284.257 0C338.957 233.659 405.387 245.737 518.882 421.294C548.384 466.901 569 515.424 569 571.096C569 648.427 541.095 714.721 485.215 769.977C429.127 825.233 362.28 853 284.396 853C206.72 853 140.011 825.233 83.9235 769.977C27.9745 714.721 0 648.427 0 571.096C0 515.146 20.9635 466.276 50.7428 420.391C164.446 245.251 230.599 232.895 284.257 0Z" fill="#5F86A6"/>
<path d="M284.5 427C253.394 427 137.799 599.569 104.829 649.77C100.733 656.008 104.746 664.181 112.177 664.872C146.397 668.053 227.632 675 284.5 675C341.368 675 422.603 668.053 456.823 664.872C464.254 664.181 468.268 656.008 464.171 649.77C431.202 599.569 315.606 427 284.5 427Z" fill="#B4DDFF"/>
<circle cx="139.5" cy="646.5" r="5.5" fill="#5F86A6"/>
<circle cx="139.5" cy="646.5" r="5.5" fill="#5F86A6"/>
<circle cx="162.5" cy="657.5" r="5.5" fill="#5F86A6"/>
<circle cx="162.5" cy="657.5" r="5.5" fill="#5F86A6"/>
<circle cx="162.5" cy="630.5" r="5.5" fill="#5F86A6"/>
<circle cx="162.5" cy="630.5" r="5.5" fill="#5F86A6"/>
<circle cx="139.5" cy="625.5" r="5.5" fill="#5F86A6"/>
<circle cx="139.5" cy="625.5" r="5.5" fill="#5F86A6"/>
<circle cx="162.5" cy="603.5" r="5.5" fill="#5F86A6"/>
<circle cx="162.5" cy="603.5" r="5.5" fill="#5F86A6"/>
<circle cx="185.5" cy="640.5" r="5.5" fill="#5F86A6"/>
<circle cx="185.5" cy="640.5" r="5.5" fill="#5F86A6"/>
<circle cx="190.5" cy="609.5" r="5.5" fill="#5F86A6"/>
<circle cx="190.5" cy="609.5" r="5.5" fill="#5F86A6"/>
<circle cx="211.5" cy="652.5" r="5.5" fill="#5F86A6"/>
<circle cx="211.5" cy="652.5" r="5.5" fill="#5F86A6"/>
</g>
<defs>
<clipPath id="clip0_32_13">
<rect width="569" height="853" fill="white"/>
</clipPath>
</defs>
</svg>
