<svg width="569" height="853" viewBox="0 0 569 853" fill="none" xmlns="http://www.w3.org/2000/svg">
<g clip-path="url(#clip0_33_47)">
<path fill-rule="evenodd" clip-rule="evenodd" d="M284.257 0C338.957 233.659 405.387 245.737 518.882 421.294C548.384 466.901 569 515.424 569 571.096C569 648.427 541.095 714.721 485.215 769.977C429.127 825.233 362.28 853 284.396 853C206.72 853 140.011 825.233 83.9235 769.977C27.9745 714.721 0 648.427 0 571.096C0 515.146 20.9635 466.276 50.7428 420.391C164.446 245.251 230.599 232.895 284.257 0Z" fill="#5F86A6"/>
<path d="M420.754 406.583H361.79C356.141 406.583 353.312 413.411 357.307 417.407L375.627 435.726L268.713 542.64L231.275 505.201L221.241 495.167C217.846 491.772 212.342 491.772 208.947 495.167L145.127 558.983C141.732 562.378 141.732 567.882 145.127 571.277L155.161 581.311C158.556 584.706 164.06 584.706 167.455 581.311L215.092 533.674L262.492 581.074C265.887 584.469 271.391 584.469 274.786 581.074L279.888 575.972C280.151 575.763 280.426 575.577 280.669 575.333L397.952 458.051L416.271 476.37C420.267 480.366 427.095 477.537 427.095 471.888V412.924C427.095 409.421 424.256 406.583 420.754 406.583Z" fill="#B4DDFF"/>
<path d="M350.043 526.078V682.401C350.043 687.203 353.934 691.095 358.736 691.095H386.498C391.3 691.095 395.192 687.203 395.192 682.401V480.929L350.043 526.078Z" fill="#B4DDFF"/>
<path d="M291.525 584.599V682.401C291.525 687.203 295.416 691.095 300.218 691.095H327.98C332.782 691.095 336.674 687.203 336.674 682.401V539.45L291.525 584.599Z" fill="#B4DDFF"/>
<path d="M268.641 597.847C262.517 597.847 256.764 595.464 252.433 591.133L233.004 571.707V682.401C233.004 687.203 236.895 691.095 241.697 691.095H269.459C274.261 691.095 278.153 687.203 278.153 682.401V595.764C275.203 597.114 271.982 597.847 268.641 597.847Z" fill="#B4DDFF"/>
<path d="M215.092 553.792L177.517 591.367C176.575 592.309 175.554 593.144 174.486 593.896V682.402C174.486 687.204 178.377 691.095 183.179 691.095H210.941C215.743 691.095 219.635 687.204 219.635 682.402V558.335L215.092 553.792Z" fill="#B4DDFF"/>
</g>
<defs>
<clipPath id="clip0_33_47">
<rect width="569" height="853" fill="white"/>
</clipPath>
</defs>
</svg>
