<svg width="569" height="853" viewBox="0 0 569 853" fill="none" xmlns="http://www.w3.org/2000/svg">
<g clip-path="url(#clip0_34_68)">
<path fill-rule="evenodd" clip-rule="evenodd" d="M284.257 0C338.957 233.659 405.387 245.737 518.882 421.294C548.384 466.901 569 515.424 569 571.096C569 648.427 541.095 714.721 485.215 769.977C429.127 825.233 362.28 853 284.396 853C206.72 853 140.011 825.233 83.9235 769.977C27.9745 714.721 0 648.427 0 571.096C0 515.146 20.9635 466.276 50.7428 420.391C164.446 245.251 230.599 232.895 284.257 0Z" fill="#5F86A6"/>
<g clip-path="url(#clip1_34_68)">
<path fill-rule="evenodd" clip-rule="evenodd" d="M303.202 497.14V405.329C303.202 397.639 300.051 390.647 294.983 385.56C289.915 380.487 282.916 377.333 275.233 377.333C267.551 377.333 260.565 380.487 255.484 385.56C250.416 390.647 247.265 397.639 247.265 405.329V581.893C227.891 591.837 214.644 612.036 214.644 635.334C214.644 668.47 241.473 695.338 274.59 695.338C307.707 695.338 334.549 668.47 334.549 635.334C334.549 612.559 321.879 592.75 303.202 582.577V497.14ZM286.804 592.911C305.213 598.212 318.688 615.189 318.688 635.334C318.688 659.706 298.951 679.462 274.59 679.462C250.242 679.462 230.492 659.706 230.492 635.334C230.492 615.189 243.967 598.212 262.389 592.911V437.512C262.389 422.333 286.804 422.937 286.804 437.512V592.911ZM332.645 411.892V398.901H366.472C370.052 398.901 372.962 401.799 372.962 405.396C372.962 408.98 370.052 411.892 366.472 411.892H332.645ZM332.645 447.363V434.372H366.472C370.052 434.372 372.962 437.284 372.962 440.867C372.962 444.451 370.052 447.363 366.472 447.363H332.645ZM332.645 482.834V469.843H366.472C370.052 469.843 372.962 472.755 372.962 476.338C372.962 479.922 370.052 482.834 366.472 482.834H332.645ZM332.645 518.305V505.314H366.472C370.052 505.314 372.962 508.226 372.962 511.809C372.962 515.393 370.052 518.305 366.472 518.305H332.645ZM332.645 553.776V540.785H366.472C370.052 540.785 372.962 543.697 372.962 547.28C372.962 550.877 370.052 553.776 366.472 553.776H332.645ZM317.534 570.633C338.424 584.55 352.18 608.331 352.18 635.334C352.18 678.227 317.441 713 274.59 713C231.739 713 197 678.227 197 635.334C197 607.781 211.333 583.57 232.946 569.787V405.329C232.946 393.68 237.706 383.104 245.361 375.428C253.03 367.764 263.596 363 275.233 363C286.871 363 297.45 367.764 305.106 375.428C312.775 383.104 317.534 393.68 317.534 405.329V570.633Z" fill="#B4DDFF"/>
</g>
</g>
<defs>
<clipPath id="clip0_34_68">
<rect width="569" height="853" fill="white"/>
</clipPath>
<clipPath id="clip1_34_68">
<rect width="175.962" height="350" fill="white" transform="translate(197 363)"/>
</clipPath>
</defs>
</svg>
