<svg width="176" height="350" viewBox="0 0 176 350" fill="none" xmlns="http://www.w3.org/2000/svg">
<g clip-path="url(#clip0_34_78)">
<path fill-rule="evenodd" clip-rule="evenodd" d="M106.202 134.14V42.3291C106.202 34.639 103.051 27.6468 97.9828 22.5603C92.9148 17.4872 85.916 14.3334 78.2334 14.3334C70.5509 14.3334 63.5655 17.4872 58.484 22.5603C53.4159 27.6468 50.2651 34.639 50.2651 42.3291V218.893C30.8911 228.837 17.6444 249.036 17.6444 272.334C17.6444 305.47 44.4731 332.338 77.5899 332.338C110.707 332.338 137.549 305.47 137.549 272.334C137.549 249.559 124.879 229.75 106.202 219.577V134.14ZM89.8042 229.911C108.213 235.212 121.688 252.189 121.688 272.334C121.688 296.706 101.951 316.462 77.5899 316.462C53.2416 316.462 33.4922 296.706 33.4922 272.334C33.4922 252.189 46.9669 235.212 65.3889 229.911V74.5121C65.3889 59.3332 89.8042 59.9371 89.8042 74.5121V229.911ZM135.645 48.8918V35.9005H169.472C173.052 35.9005 175.962 38.7994 175.962 42.3962C175.962 45.9795 173.052 48.8918 169.472 48.8918H135.645ZM135.645 84.3629V71.3716H169.472C173.052 71.3716 175.962 74.2839 175.962 77.8672C175.962 81.4506 173.052 84.3629 169.472 84.3629H135.645ZM135.645 119.834V106.843H169.472C173.052 106.843 175.962 109.755 175.962 113.338C175.962 116.922 173.052 119.834 169.472 119.834H135.645ZM135.645 155.305V142.314H169.472C173.052 142.314 175.962 145.226 175.962 148.809C175.962 152.393 173.052 155.305 169.472 155.305H135.645ZM135.645 190.776V177.785H169.472C173.052 177.785 175.962 180.697 175.962 184.28C175.962 187.877 173.052 190.776 169.472 190.776H135.645ZM120.534 207.633C141.424 221.55 155.18 245.331 155.18 272.334C155.18 315.227 120.441 350 77.5899 350C34.7391 350 0 315.227 0 272.334C0 244.781 14.3327 220.57 35.9458 206.787V42.3291C35.9458 30.6799 40.7055 20.1043 48.3613 12.4276C56.0304 4.76437 66.5956 0 78.2334 0C89.8712 0 100.45 4.76437 108.106 12.4276C115.775 20.1043 120.534 30.6799 120.534 42.3291V207.633Z" fill="#B4DDFF"/>
</g>
<defs>
<clipPath id="clip0_34_78">
<rect width="175.962" height="350" fill="white"/>
</clipPath>
</defs>
</svg>
