<svg width="569" height="853" viewBox="0 0 569 853" fill="none" xmlns="http://www.w3.org/2000/svg">
<g clip-path="url(#clip0_31_2)">
<path fill-rule="evenodd" clip-rule="evenodd" d="M284.257 0C338.957 233.659 405.387 245.737 518.882 421.294C548.384 466.901 569 515.424 569 571.096C569 648.427 541.095 714.721 485.215 769.977C429.127 825.233 362.28 853 284.396 853C206.72 853 140.011 825.233 83.9235 769.977C27.9745 714.721 0 648.427 0 571.096C0 515.146 20.9635 466.276 50.7428 420.391C164.446 245.251 230.599 232.895 284.257 0Z" fill="#5F86A6"/>
<path d="M245.995 336.425C242.547 336.425 239.241 337.795 236.802 340.233C234.364 342.671 232.995 345.977 232.995 349.425C232.995 352.873 234.364 356.18 236.802 358.618C239.241 361.056 242.547 362.426 245.995 362.426H258.996V390.248C213.453 396.83 172.094 420.416 143.238 456.261C114.382 492.105 100.173 537.548 103.468 583.445C106.762 629.343 127.318 672.29 160.997 703.645C194.677 735 238.982 752.437 284.997 752.447C319.889 752.445 354.044 742.415 383.396 723.55C412.748 704.686 436.059 677.782 450.553 646.044C465.047 614.305 470.113 579.069 465.147 544.533C460.181 509.997 445.393 477.616 422.545 451.247C422.659 451.145 422.772 451.041 422.883 450.935L432.087 441.73L441.266 450.935C442.465 452.176 443.899 453.167 445.485 453.848C447.072 454.53 448.778 454.888 450.504 454.903C452.23 454.918 453.942 454.589 455.54 453.936C457.137 453.282 458.589 452.317 459.81 451.096C461.03 449.875 461.996 448.424 462.649 446.826C463.303 445.228 463.632 443.516 463.617 441.79C463.602 440.064 463.243 438.358 462.562 436.772C461.881 435.186 460.89 433.751 459.648 432.552L422.883 395.76C421.683 394.518 420.249 393.528 418.663 392.846C417.076 392.165 415.371 391.806 413.644 391.791C411.918 391.776 410.206 392.105 408.608 392.759C407.011 393.413 405.559 394.378 404.338 395.599C403.118 396.819 402.152 398.271 401.499 399.869C400.845 401.466 400.516 403.178 400.531 404.905C400.546 406.631 400.905 408.337 401.586 409.923C402.267 411.509 403.258 412.944 404.5 414.143L413.704 423.347L404.5 432.552C404.394 432.655 404.29 432.759 404.188 432.864C377.866 410.003 345.51 395.215 310.999 390.274V362.426H323.999C327.447 362.426 330.754 361.056 333.192 358.618C335.63 356.18 337 352.873 337 349.425C337 345.977 335.63 342.671 333.192 340.233C330.754 337.795 327.447 336.425 323.999 336.425H245.995ZM297.998 482.032V570.437C297.998 573.885 296.628 577.192 294.19 579.63C291.752 582.068 288.445 583.438 284.997 583.438H193.993C190.545 583.438 187.238 582.068 184.8 579.63C182.362 577.192 180.992 573.885 180.992 570.437C180.992 566.989 182.362 563.682 184.8 561.244C187.238 558.806 190.545 557.436 193.993 557.436H271.997V482.032C271.997 478.584 273.366 475.278 275.805 472.84C278.243 470.401 281.549 469.032 284.997 469.032C288.445 469.032 291.752 470.401 294.19 472.84C296.628 475.278 297.998 478.584 297.998 482.032Z" fill="#B4DDFF"/>
</g>
<defs>
<clipPath id="clip0_31_2">
<rect width="569" height="853" fill="white"/>
</clipPath>
</defs>
</svg>
